<?xml version="1.0" encoding="utf-8"?>
<!-- Generator: Adobe Illustrator 17.0.0, SVG Export Plug-In . SVG Version: 6.00 Build 0)  -->
<!DOCTYPE svg PUBLIC "-//W3C//DTD SVG 1.1//EN" "http://www.w3.org/Graphics/SVG/1.1/DTD/svg11.dtd">
<svg version="1.1" id="Layer_35" xmlns="http://www.w3.org/2000/svg" xmlns:xlink="http://www.w3.org/1999/xlink" x="0px" y="0px"
	 width="512px" height="512px" viewBox="0 0 512 512" enable-background="new 0 0 512 512" xml:space="preserve">
<path fill="#EFE536" d="M506,69.263c0-32.843-26.717-59.559-59.559-59.559H395.39c-32.843,0-59.559,26.717-59.559,59.559v59.559
	h110.61C479.284,128.822,506,102.105,506,69.263z M463.458,111.805h-17.017V94.788h17.017V111.805z M378.373,26.72h85.085v17.017
	h-85.085V26.72z M378.373,60.754h85.085v17.017h-85.085V60.754z M395.39,111.805h-17.017V94.788h17.017V111.805z M429.424,111.805
	h-17.017V94.788h17.017V111.805z"/>
<path fill="#EFE536" d="M403.898,273.466c0-47.001-16.915-92.13-47.511-127.627h-37.573v-33.685
	c-32.647-22.437-70.756-34.383-110.61-34.383c-107.904,0-195.695,87.79-195.695,195.695c0,55.067,23.305,107.581,63.967,144.644
	h59.559c-53.008-26.563-89.492-81.426-89.492-144.644c0-89.143,72.518-161.661,161.661-161.661s161.661,72.518,161.661,161.661
	s-72.518,161.661-161.661,161.661H4v34.034h204.203C316.108,469.161,403.898,381.37,403.898,273.466z"/>
<circle fill="#EFE536" cx="208.204" cy="273.466" r="8.508"/>
<path fill="#EFE536" d="M352.848,273.466c0-79.758-64.886-144.644-144.644-144.644S63.559,193.707,63.559,273.466
	S128.445,418.11,208.204,418.11S352.848,353.224,352.848,273.466z M208.204,401.093c-70.374,0-127.627-57.254-127.627-127.627
	s57.254-127.627,127.627-127.627s127.627,57.254,127.627,127.627S278.577,401.093,208.204,401.093z"/>
<path fill="#EFE536" d="M429.424,435.127h-83.204c-16.302,13.937-34.698,25.491-54.692,34.034h137.897v19.008l60.036-36.025
	l-60.036-36.025V435.127z"/>
<path fill="#EFE536" d="M284.78,264.957h33.6c-1.846-24.105-11.41-46.039-26.274-63.363l-23.747,23.747l-12.031-12.031
	l23.747-23.747c-17.323-14.864-39.267-24.428-63.363-26.274v33.6h-17.017v-33.6c-24.105,1.846-46.039,11.41-63.363,26.274
	l23.747,23.747l-12.031,12.031l-23.747-23.747c-14.864,17.323-24.428,39.267-26.274,63.363h33.6v17.017h-33.6
	c1.846,24.105,11.41,46.039,26.274,63.363l23.747-23.747l12.031,12.031l-23.747,23.747c17.323,14.864,39.267,24.428,63.363,26.274
	v-33.6h17.017v33.6c24.105-1.846,46.039-11.41,63.363-26.274l-23.747-23.747l12.031-12.031l23.747,23.747
	c14.864-17.323,24.428-39.267,26.274-63.363h-33.6V264.957z M236.222,313.515l-17.085-17.085c-3.327,1.6-7.002,2.561-10.933,2.561
	c-14.073,0-25.525-11.452-25.525-25.525c0-11.078,7.139-20.437,17.017-23.96v-35.599h17.017v35.599
	c9.878,3.523,17.017,12.882,17.017,23.96c0,3.931-0.961,7.607-2.561,10.933l17.085,17.085L236.222,313.515z"/>
</svg>
