<?xml version="1.0" encoding="utf-8"?>
<!-- Generator: Adobe Illustrator 17.0.0, SVG Export Plug-In . SVG Version: 6.00 Build 0)  -->
<!DOCTYPE svg PUBLIC "-//W3C//DTD SVG 1.1//EN" "http://www.w3.org/Graphics/SVG/1.1/DTD/svg11.dtd">
<svg version="1.1" id="Capa_1" xmlns="http://www.w3.org/2000/svg" xmlns:xlink="http://www.w3.org/1999/xlink" x="0px" y="0px"
	 width="1823px" height="2500px" viewBox="0 0 1823 2500" enable-background="new 0 0 1823 2500" xml:space="preserve">
<g>
	<path fill="#EFE536" d="M389.96,45.379c-7.013-13.164-18.524-15.13-24.762-15.13c-12.332,0-25.939,7.458-28.538,24.121
		L57.686,1840.568L696.147,620.527L389.96,45.379z"/>
	<path fill="#EFE536" d="M1154.568,816.228l-219.83-419.656c-5.187-9.872-15.224-15.784-26.835-15.784
		c-11.511,0-21.417,5.856-26.5,15.666c-0.022,0.044-0.045,0.087-0.068,0.131L763.891,620.543l201.932,384.796L1154.568,816.228z"/>
	<polygon fill="#EFE536" points="127.675,1845.113 917.743,1053.512 728.867,704.365 	"/>
	<polygon fill="#EFE536" points="728.867,704.365 724.357,696.027 117.903,1854.903 127.675,1845.113 	"/>
	<polygon fill="#EFE536" points="728.867,704.365 917.743,1053.512 921.413,1049.835 734.505,693.667 	"/>
	<polygon fill="#EFE536" points="730.042,685.163 724.357,696.027 728.867,704.365 734.505,693.667 	"/>
	<path fill="#EFE536" d="M1217.523,851.74l-234.675,240.337c-2.438,2.497-5.268,4.521-8.346,6.017
		c-1.514,3.803-3.783,7.263-6.687,10.156L58.748,2013.945l779.133,435.017c21.078,11.769,44.982,17.989,69.126,17.99
		c24.12,0,48.005-6.21,69.073-17.961l809.636-451.537L1552.638,561.99c-2.497-15.376-15.506-22.38-26.536-22.38
		c-4.871,0-12.039,1.364-18.528,7.863l-281.559,282.105C1226.335,837.64,1223.421,845.7,1217.523,851.74z"/>
	<path fill="#EFE536" d="M974.503,1098.094c3.078-1.497,5.908-3.521,8.346-6.017l234.675-240.337
		c5.897-6.04,8.812-14.101,8.491-22.162l-241.869,242.338l-9.343,25.428C974.709,1097.598,974.603,1097.844,974.503,1098.094z"/>
	<path fill="#EFE536" d="M49.239,2008.636l9.509,5.309l909.069-905.694c2.904-2.893,5.173-6.353,6.687-10.156
		c-4.049,1.969-8.528,3.024-13.119,3.024h-0.008c-1.971,0-3.912-0.201-5.803-0.574"/>
	<path fill="#EFE536" d="M961.376,1101.118h0.008c4.591,0,9.07-1.055,13.119-3.024c0.1-0.25,0.206-0.497,0.299-0.75l9.343-25.428
		l-28.572,28.627C957.464,1100.917,959.405,1101.118,961.376,1101.118z"/>
</g>
</svg>
