<?xml version="1.0" encoding="utf-8"?>
<!-- Generator: Adobe Illustrator 17.0.0, SVG Export Plug-In . SVG Version: 6.00 Build 0)  -->
<!DOCTYPE svg PUBLIC "-//W3C//DTD SVG 1.1//EN" "http://www.w3.org/Graphics/SVG/1.1/DTD/svg11.dtd">
<svg version="1.1" id="Capa_1" xmlns="http://www.w3.org/2000/svg" xmlns:xlink="http://www.w3.org/1999/xlink" x="0px" y="0px"
	 width="8503.94px" height="8503.94px" viewBox="0 0 8503.94 8503.94" enable-background="new 0 0 8503.94 8503.94"
	 xml:space="preserve">
<path fill="#F0E535" d="M3414.338,1175.761V279.217H1041.06c-385.299,0.415-697.467,312.7-698.015,698.015v2361.701h708.911
	c-6.992-42.303-10.613-85.171-10.896-128.023c0-2.508,0-5.863,0-7.258s0-2.94,0-4.335c0-462.647,374.984-837.632,837.632-837.632
	s837.632,374.985,837.632,837.632c0,1.395,0,1.827,0,4.335s0,4.75,0,7.258c-0.282,42.868-3.92,85.72-10.896,128.023h708.911
	v-884.951c0-19.134,3.92-38.118,11.593-55.707c30.86-70.788,113.225-103.043,183.863-72.184
	c70.356,31.126,146.443,47.187,223.359,47.187c308.382,0,558.416-250.034,558.416-558.416
	c0-308.382-250.034-558.416-558.416-558.416c-76.917,0-153.003,16.061-223.359,47.187c-17.589,7.69-36.573,11.593-55.707,11.593
	C3476.888,1315.36,3414.338,1252.827,3414.338,1175.761z"/>
<path fill="#F0E535" d="M8160.946,6573.062c-0.133-136.677-66.719-264.683-178.548-343.145L7138.77,5649.03l261.627,698.729
	c79.159,209.69,83.478,440.175,12.423,652.656l288.417,288.417l-104.493,104.493l564.201,564.207V6573.062z"/>
<path fill="#F0E535" d="M6485.648,8236.666c-46.502,0-91.674-5.694-134.866-16.408l-5.392,16.21c0.22,0.07,0.438,0.144,0.658,0.215
	h632.67c-0.01-0.006-0.02-0.012-0.03-0.017H6485.648z"/>
<path fill="#F0E535" d="M6543.632,7716.85l-420.909,158.451c56.255,107.627,151.891,189.294,266.926,228.11l-38.866,116.847
	c43.191,10.714,88.363,16.408,134.866,16.408h493.042C6780.619,8123.584,6623.593,7941.876,6543.632,7716.85z"/>
<path fill="#F0E535" d="M5422.432,4310.302l404.221-178.79c15.339-25.484,29.228-52.234,41.501-80.196
	c78.594-178.831,78.594-382.508,0-561.355h1036.144V977.232h0.15c0-462.647-374.984-837.631-837.632-837.631H3553.938v1036.144
	c352.927-154.963,764.751,5.448,919.714,358.508c154.963,352.927-5.448,764.75-358.508,919.714
	c-178.831,78.594-382.508,78.594-561.355,0v1036.144h1036.144c-154.963,352.928,5.448,764.751,358.508,919.714
	c128.104,56.248,263.965,70.933,392.489,49.947C5331.239,4398.485,5363.523,4336.309,5422.432,4310.302z"/>
<path fill="#F0E535" d="M3331.028,6234.519c43.981-16.476,89.208-29.049,135.414-37.42l-76.245-203.665
	c-308.332,52.599-624.54-108.251-755.972-407.701c-154.963-352.927,5.448-764.751,358.508-919.714
	c88.792-39.248,184.976-59.212,282.006-59.062c96.183,0.133,191.254,20.247,279.216,58.913V3490.126H2517.811
	c154.963-352.927-5.448-764.75-358.508-919.713c-353.06-154.963-764.75,5.448-919.714,358.508
	c-78.594,178.831-78.594,382.525,0,561.355H203.429v2512.878c0,462.647,374.984,837.631,837.631,837.631h1763.175
	C2863.622,6571.979,3053.845,6337.838,3331.028,6234.519z"/>
<path fill="#F0E535" d="M3101.103,6840.785c-62.581,188.786-22.075,404.973,124.058,559.677
	c211.916,224.207,565.259,234.255,789.465,22.472c26.11-25.562,61.155-39.795,97.728-39.795c10.198,0,20.379,1.129,30.295,3.355
	c46.057,10.181,83.76,43.134,100.369,87.248l266.078,711.004l1418.137-534.153v-530.757h10.613l-1.571-268.654
	c-55.703-124.325-56.307-267.103-2.291-391.666l-6.751-1154.542h784.347l-404.794-1080.507l-642.175,284.381
	c11.161,24.283,22.754,51.505,35.593,85.853c162.088,433.764-56.67,916.923-489.587,1081.104
	c-44.264,16.609-89.772,29.448-136.262,38.384c-454.276,87.248-893.338-210.388-980.587-664.664l-664.797,250.316l364.653,973.594
	c6.694,18.004,9.633,37.121,8.653,56.255c-4.053,76.917-69.659,136.111-146.725,132.059c-29.182-1.528-58.498-0.548-87.53,2.94
	c-4.703,0.432-9.397,0.942-14.085,1.496v374.602H3101.103z"/>
<path fill="#F0E535" d="M5933.985,6459.515c24.374-56.207,59.867-108.705,106.44-154.125
	c191.818-187.068,498.955-183.166,686.023,8.653l453.164,453.014c11.875-108.89-2.093-219.041-40.775-321.62L6711.58,5304.972
	h-784.347L5933.985,6459.515z"/>
<path fill="#F0E535" d="M6160.194,7119.835l-119.769-119.769c-2.923-2.791-5.863-5.714-8.653-8.653
	c-40.992-42.032-72.812-89.603-95.496-140.232l1.571,268.654H6160.194z"/>
<polygon fill="#F0E535" points="5927.233,7119.835 5927.233,7650.592 5940.92,7645.437 5937.846,7119.835 "/>
<polygon fill="#F0E535" points="5940.92,7645.437 6481.995,7441.637 6160.194,7119.835 5937.846,7119.835 "/>
<path fill="#F0E535" d="M3247.633,6610.997c-69.502,65.691-118.415,144.976-146.53,229.788h452.835v-374.602
	c-42.346,5.002-84.015,14.945-123.987,29.779C3362.252,6522.072,3300.4,6561.153,3247.633,6610.997z"/>
<rect x="7811.938" y="7887.675" fill="#F0E535" width="0" height="698.016"/>
<path fill="#F0E535" d="M7596.745,7393.326l-92.906,92.906l-319.474-319.474c-45.051,68.405-100.267,130.548-164.49,183.896
	l365.052,730.103c25.606,2.993,51.632,4.618,78.004,4.781v151.144h698.016v-279.15L7596.745,7393.326z"/>
<path fill="#F0E535" d="M6773.396,7492.663c48.416,309.219,298.536,551.514,611.53,588.095l-365.052-730.103
	c-69.827,58.003-150.294,105.616-239.945,139.547L6773.396,7492.663z"/>
<path fill="#F0E535" d="M6368.854,6451.617c-59.611,3.902-114.487,33.783-150.081,81.799c-61.138,82.099-52.9,196.569,19.134,269.3
	l317.118,317.118h349.438l115.41,230.82c64.223-53.349,119.439-115.491,164.49-183.896l-655.249-655.25
	C6487.376,6468.508,6428.613,6446.584,6368.854,6451.617z"/>
<path fill="#F0E535" d="M6555.026,7119.835l168.981,168.981c26.243,26.109,40.908,61.719,40.908,98.708
	c0.219,35.744,3.113,70.852,8.481,105.139l6.533-2.461c89.651-33.931,170.118-81.543,239.945-139.547l-115.41-230.82H6555.026z"/>
</svg>
