<?xml version="1.0" encoding="utf-8"?>
<!-- Generator: Adobe Illustrator 17.0.0, SVG Export Plug-In . SVG Version: 6.00 Build 0)  -->
<!DOCTYPE svg PUBLIC "-//W3C//DTD SVG 1.1//EN" "http://www.w3.org/Graphics/SVG/1.1/DTD/svg11.dtd">
<svg version="1.1" id="Capa_1" xmlns="http://www.w3.org/2000/svg" xmlns:xlink="http://www.w3.org/1999/xlink" x="0px" y="0px"
	 width="8503.94px" height="8503.94px" viewBox="0 0 8503.94 8503.94" enable-background="new 0 0 8503.94 8503.94"
	 xml:space="preserve">
<g>
	<path id="XMLID_49_" fill="#F0E535" d="M5221.349,7431.325v248.469c0,197.725-145.231,362.205-334.208,390.201l-61.243,225.722
		c-33.246,122.485-143.482,208.225-271.216,208.225h-607.174c-127.734,0-237.97-85.739-271.216-208.225l-59.492-225.722
		c-190.726-29.747-335.958-192.476-335.958-391.951v-248.469c0-132.983,106.737-239.72,239.72-239.72h1461.068
		C5114.612,7191.604,5221.349,7298.341,5221.349,7431.325z M6346.459,4082.242c0,565.179-223.972,1077.865-587.927,1454.069
		c-276.465,286.964-454.943,652.668-514.436,1042.87c-26.247,167.979-171.478,292.214-342.957,292.214H3601.051
		c-169.729,0-316.71-122.485-341.207-290.464c-61.242-390.201-241.47-761.155-517.936-1046.37
		c-356.956-370.954-579.178-874.891-584.427-1429.572c-12.249-1165.354,915.136-2108.487,2080.491-2117.236
		C5401.577,1979.004,6346.459,2920.386,6346.459,4082.242z M4488.191,2813.65c0-129.484-104.987-236.22-236.221-236.22
		c-832.896,0-1511.812,677.166-1511.812,1511.812c0,129.484,104.987,236.221,236.22,236.221
		c129.484,0,236.221-104.987,236.221-236.221c0-573.928,467.192-1039.37,1039.37-1039.37
		C4383.204,3049.871,4488.191,2944.884,4488.191,2813.65z M4251.97,1300.089c129.484,0,236.221-104.987,236.221-236.22V236.221
		C4488.191,106.737,4383.204,0,4251.97,0c-131.233,0-236.22,104.987-236.22,236.221v827.647
		C4015.75,1195.102,4122.486,1300.089,4251.97,1300.089z M1471.567,4080.492c0-129.484-104.987-236.22-236.221-236.22H407.699
		c-129.484,0-236.221,104.987-236.221,236.22c0,129.484,104.987,236.22,236.221,236.22h827.647
		C1366.58,4316.712,1471.567,4211.726,1471.567,4080.492z M8096.242,3844.271h-827.647c-129.484,0-236.221,104.987-236.221,236.22
		c0,129.484,104.987,236.22,236.221,236.22h827.647c129.484,0,236.22-104.987,236.22-236.22
		C8332.462,3951.008,8227.476,3844.271,8096.242,3844.271z M1952.757,6047.247l-586.177,586.177
		c-92.739,92.738-92.739,241.47,0,334.208c45.494,45.494,106.737,68.241,166.229,68.241c59.493,0,120.735-22.747,166.229-68.241
		l586.177-586.177c92.739-92.738,92.739-241.47,0-334.208C2194.227,5954.508,2043.745,5954.508,1952.757,6047.247z
		 M6384.955,2183.729c59.492,0,120.735-22.747,166.229-68.241l586.177-586.177c92.738-92.738,92.738-241.47,0-334.208
		c-92.738-92.739-241.47-92.739-334.208,0l-586.177,586.177c-92.738,92.739-92.738,241.47,0,334.208
		C6264.22,2160.981,6323.712,2183.729,6384.955,2183.729z M1952.757,2113.737c45.494,45.494,106.737,68.241,166.229,68.241
		c59.492,0,120.735-22.747,166.229-68.241c92.739-92.739,92.739-241.47,0-334.208l-586.177-586.177
		c-92.739-92.739-241.47-92.739-334.208,0c-92.739,92.738-92.739,241.47,0,334.208L1952.757,2113.737z M6551.184,6047.247
		c-92.738-92.738-241.47-92.738-334.208,0c-92.738,92.738-92.738,241.47,0,334.208l586.177,586.177
		c45.494,45.494,106.737,68.241,166.229,68.241c59.493,0,120.735-22.747,166.229-68.241c92.738-92.738,92.738-241.47,0-334.208
		L6551.184,6047.247z"/>
</g>
</svg>
