<?xml version="1.0" encoding="utf-8"?>
<!-- Generator: Adobe Illustrator 17.0.0, SVG Export Plug-In . SVG Version: 6.00 Build 0)  -->
<!DOCTYPE svg PUBLIC "-//W3C//DTD SVG 1.1//EN" "http://www.w3.org/Graphics/SVG/1.1/DTD/svg11.dtd">
<svg version="1.1" id="Capa_1" xmlns="http://www.w3.org/2000/svg" xmlns:xlink="http://www.w3.org/1999/xlink" x="0px" y="0px"
	 width="8503.94px" height="8503.94px" viewBox="0 0 8503.94 8503.94" enable-background="new 0 0 8503.94 8503.94"
	 xml:space="preserve">
<path fill="#EFE536" d="M3454.726,1461.632H2125.985v3529.434c0,873.314-299.498,1117.156-820.697,1117.156
	c-244.239,0-464.195-41.872-635.304-100.702L531.496,7040.731c244.156,84.076,618.844,134.469,911.965,134.469
	c1196.664,0,2011.265-562.572,2011.265-2175.481V1461.632z M6352.427,1328.741c-1286.271,0-2100.457,730.774-2100.457,1696.702
	c0,831.841,627.016,1352.657,1538.698,1688.58c659.388,235.154,920.02,445.261,920.02,789.588
	c0,377.96-301.275,621.601-871.123,621.601c-529.221,0-1009.66-176.723-1335.285-353.03v-0.349L4251.97,6821.871
	c309.58,176.689,887.616,353.03,1514.216,353.03c1506.244-0.033,2206.258-806.413,2206.258-1755.565
	c0-806.379-447.753-1327.08-1416.405-1696.852c-716.507-285.53-1017.649-445.045-1017.649-806.246
	c0-285.679,260.566-545.93,797.958-545.93c528.938,0,892.648,177.835,1104.599,287.191L7758.6,1594.506
	C7426.415,1448.66,6979.011,1328.741,6352.427,1328.741z"/>
</svg>
