<?xml version="1.0" encoding="utf-8"?>
<!-- Generator: Adobe Illustrator 17.0.0, SVG Export Plug-In . SVG Version: 6.00 Build 0)  -->
<!DOCTYPE svg PUBLIC "-//W3C//DTD SVG 1.1//EN" "http://www.w3.org/Graphics/SVG/1.1/DTD/svg11.dtd">
<svg version="1.1" id="Capa_1" xmlns="http://www.w3.org/2000/svg" xmlns:xlink="http://www.w3.org/1999/xlink" x="0px" y="0px"
	 width="8503.94px" height="8503.94px" viewBox="0 0 8503.94 8503.94" enable-background="new 0 0 8503.94 8503.94"
	 xml:space="preserve">
<path fill="#EFE536" d="M4250.592,7972.445c-97.284-0.131-192.729-26.521-276.262-76.386l-880.042-538.804
	c-131.446-75.772-66.819-103.027-23.967-118.606c175.477-62.8,227.763-93.959,414.351-204.045
	c20.031-11.078,45.626-7.042,65.69,5.348l659.554,390.384c24.515,14.118,59.079,14.118,81.9,0l2577.558-1532.138
	c24.499-14.566,40.111-43.948,40.111-73.762V2721.743c0-30.727-15.612-59.66-40.676-75.207L4292.381,1074.105
	c-24.548-14.849-56.82-14.849-81.352,0l-2574.751,1572.98c-25.645,14.998-41.789,44.812-41.789,74.658v3102.693
	c0,30.112,16.144,58.348,41.208,72.898l663.191,398.157c392.145,202.7,624.342-2.824,624.342-242.678V3001.709
	c0-44.048,33.999-78.512,76.336-78.512h378.841c41.772,0,76.353,34.415,76.353,78.512v3051.088
	c0,540.847-321.439,851.191-817.159,851.191c-152.074,0-272.342,0-607.102-170.726l-690.679-411.594
	c-171.009-102.18-276.826-293.087-276.826-497.531V2677.263c0-204.56,105.818-395.035,276.793-496.899l2635.64-1575.62
	c166.541-97.662,388.225-97.662,553.62,0l2635.059,1575.621c171.042,102.13,276.843,292.738,276.843,496.899v3146.873
	c0,204.443-105.801,394.47-276.843,497.497L4529.046,7895.76c-83.842,50.064-179.689,76.463-277.341,76.386L4250.592,7972.445z"/>
<path fill="#EFE536" d="M5064.877,5846.426c-1073.124,0-1395.277-525.019-1395.277-984.447c0-43.666,34.016-78.545,75.771-78.545
	h340.839c37.902,0,70.207,28.236,75.771,66.703c51.223,358.793,278.172,517.378,902.281,517.378
	c554.732,0,782.146-171.84,782.146-476.42c0-175.925-57.518-306.009-920.269-393.589
	c-721.291-73.762-1167.432-238.725-1167.432-835.363c0-550.348,448.384-871.82,1199.753-871.82
	c766.152,0,1269.977,232.53,1315.005,844.232c1.694,22.207-6.112,43.666-20.612,60.524c-14.466,16.028-34.514,25.362-55.69,25.362
	h-342.001c-35.644,0-66.835-25.944-74.061-61.67c-73.097-281.577-281.859-388.69-823.205-388.69
	c-606.005,0-676.761,211.818-676.761,375.485c0,198.697,83.562,256.464,901.783,368.26
	c809.884,110.667,1194.753,267.692,1194.753,856.24c0,594.296-478.479,976.342-1313.377,976.342L5064.877,5846.426
	L5064.877,5846.426z"/>
</svg>
