<?xml version="1.0" encoding="utf-8"?>
<!-- Generator: Adobe Illustrator 17.0.0, SVG Export Plug-In . SVG Version: 6.00 Build 0)  -->
<!DOCTYPE svg PUBLIC "-//W3C//DTD SVG 1.1//EN" "http://www.w3.org/Graphics/SVG/1.1/DTD/svg11.dtd">
<svg version="1.1" id="Layer_1" xmlns="http://www.w3.org/2000/svg" xmlns:xlink="http://www.w3.org/1999/xlink" x="0px" y="0px"
	 width="512px" height="512px" viewBox="0 0 512 512" enable-background="new 0 0 512 512" xml:space="preserve">
<g id="XMLID_1258_">
	<path id="XMLID_2497_" fill="#F0E535" d="M160.054,95.152c-18.922,23.241-44.145,39.911-72.943,48.207
		c-9.415,2.712-14.849,12.542-12.137,21.956c2.558,8.879,11.446,14.216,20.346,12.521c0.537-0.102,1.076-0.23,1.611-0.384
		c14.654-4.222,28.561-10.189,41.492-17.747L160.054,95.152z"/>
	<path id="XMLID_2465_" fill="#F0E535" d="M210.54,204.248l19.315-55.173c5.827,0.906,11.68,1.37,17.512,1.37
		c26.294,0,52.122-9.103,72.882-26.347l2.382-1.979c7.397-6.147,8.92-17.134,3.042-24.747c-6.172-7.992-17.685-9.214-25.387-2.815
		l-2.708,2.25c-4.621,3.839-9.606,7.091-14.849,9.736c-20.447,10.315-45.02,4.975-60.599-11.811
		c-7.623-8.213-18.522-13.429-30.802-13.429l0,0c-19.146,0-35.873,12.933-40.693,31.462l-23.798,91.483H210.54z"/>
	<path id="XMLID_1201_" fill="#F0E535" d="M126.835,204.248L56.916,387.589c-4.542,11.908,3.199,24.94,15.829,26.65l0.467,0.063
		c8.644,1.17,16.972-3.214,20.85-10.905c19.773-39.205,78.146-154.617,78.146-154.617h23.706l-12.089,76.006
		c-1.79,11.25,6.903,21.435,18.295,21.435l0,0c8.318,0,15.617-5.545,17.847-13.558l22.72-81.64
		c6.543-23.507-11.134-46.775-35.535-46.775h-10.822L126.835,204.248L126.835,204.248z"/>
	<g id="XMLID_2445_">
		<polygon id="XMLID_2448_" fill="#F0E535" points="456.395,222.413 370.217,239.757 388.947,258.486 329.047,318.386 
			286.555,275.892 89.127,473.322 117.806,502.001 286.555,333.254 329.047,375.747 417.629,287.167 439.051,308.591 		"/>
		<polygon id="XMLID_2446_" fill="#F0E535" points="456.395,222.413 370.217,239.757 388.947,258.486 329.047,318.386 
			286.555,275.892 89.127,473.322 117.806,502.001 286.555,333.254 329.047,375.747 417.629,287.167 439.051,308.591 		"/>
	</g>
	<circle id="XMLID_2427_" fill="#F0E535" cx="217.273" cy="45.651" r="35.652"/>
</g>
</svg>
