<?xml version="1.0" encoding="utf-8"?>
<!-- Generator: Adobe Illustrator 17.0.0, SVG Export Plug-In . SVG Version: 6.00 Build 0)  -->
<!DOCTYPE svg PUBLIC "-//W3C//DTD SVG 1.1//EN" "http://www.w3.org/Graphics/SVG/1.1/DTD/svg11.dtd">
<svg version="1.1" id="Capa_1" xmlns="http://www.w3.org/2000/svg" xmlns:xlink="http://www.w3.org/1999/xlink" x="0px" y="0px"
	 width="511px" height="511px" viewBox="0 0 511 511" enable-background="new 0 0 511 511" xml:space="preserve">
<g id="surface1">
	<path fill="#F0E535" d="M174.298,55.126l25.318,25.318l27.47,27.474c5.988,5.984,13.945,9.279,22.409,9.279
		c0.004,0,0.004,0,0.004,0c8.464,0,16.421-3.298,22.413-9.283c12.355-12.359,12.359-32.472,0-44.834L219.109,10.28
		c-5.988-5.988-13.945-9.287-22.417-9.287c-8.464,0-16.425,3.298-22.413,9.283c-12.316,12.32-12.355,32.339-0.121,44.713
		C174.204,55.037,174.251,55.08,174.298,55.126z"/>
	<path fill="#F0E535" d="M108.29,121.13l16.518,16.518l36.273,36.269c0.016,0.012,0.027,0.027,0.043,0.043l12.979,12.979
		c0.058,0.058,0.121,0.117,0.179,0.175c5.984,5.988,13.945,9.287,22.413,9.287c8.464,0,16.425-3.298,22.417-9.283
		c5.984-5.988,9.283-13.949,9.283-22.413c0-8.468-3.298-16.433-9.287-22.417l-13.072-13.076c-0.051-0.047-0.097-0.09-0.14-0.136
		l-30.257-30.261l-22.503-22.499c-0.012-0.012-0.02-0.019-0.031-0.031c0,0,0-0.004-0.004-0.004
		c-5.988-5.984-13.941-9.283-22.405-9.283c-8.468,0-16.433,3.298-22.421,9.287c-12.331,12.335-12.355,32.394-0.07,44.76
		C108.236,121.072,108.263,121.103,108.29,121.13z"/>
	<path fill="#F0E535" d="M42.38,187.223l52.538,52.534c0.055,0.055,0.109,0.109,0.164,0.16c5.984,5.988,13.941,9.287,22.409,9.287
		s16.433-3.298,22.421-9.283c12.343-12.351,12.355-32.437,0.027-44.799l-33.353-33.349l-19.481-19.485
		c-5.988-5.988-13.953-9.287-22.417-9.287c-8.468,0-16.425,3.298-22.409,9.283c-5.992,5.992-9.29,13.953-9.29,22.417
		c0,8.468,3.298,16.429,9.287,22.413C42.31,187.153,42.345,187.188,42.38,187.223z"/>
	<path fill="#F0E535" d="M48.984,325.831c4.76,4.713,10.756,7.735,17.251,8.768c0.133,0.023,0.261,0.043,0.39,0.066
		c1.532,0.226,3.092,0.339,4.671,0.339c8.464,0,16.425-3.294,22.413-9.283c12.355-12.359,12.355-32.472-0.004-44.83l-39.598-39.598
		c-5.992-5.988-13.953-9.287-22.421-9.287s-16.429,3.298-22.417,9.283c-12.355,12.359-12.359,32.472,0.004,44.826
		c0.055,0.059,0.109,0.113,0.164,0.172l39.427,39.423C48.903,325.749,48.945,325.788,48.984,325.831z"/>
	<path fill="#F0E535" d="M501.732,241.286c-10.273-10.269-26.152-12.257-38.616-4.838c-6.48,3.864-14.819,2.3-19.462-3.645
		l-0.885-1.138c-4.655-5.957-4.136-14.452,1.212-19.797l24.737-24.745c0.082-0.078,0.164-0.156,0.246-0.238
		c5.84-5.961,9.053-13.825,9.053-22.183c0-8.464-3.298-16.429-9.286-22.417c-5.988-5.988-13.949-9.283-22.413-9.283
		c-8.468,0-16.429,3.298-22.421,9.287c-5.844,5.848-15.326,5.848-21.173,0c-2.92-2.924-4.382-6.756-4.382-10.589
		c0-3.828,1.462-7.661,4.386-10.585c12.359-12.359,12.359-32.472,0-44.834c-12.359-12.355-32.472-12.355-44.83,0
		c-5.844,5.848-15.325,5.848-21.173,0c-2.92-2.924-4.386-6.756-4.386-10.585c0-3.832,1.466-7.665,4.39-10.589
		c5.988-5.984,9.287-13.945,9.287-22.413s-3.298-16.425-9.287-22.413c-12.359-12.363-32.472-12.359-44.834,0l-15.216,15.216
		l16.409,16.413c24.031,24.035,24.027,63.142-0.004,87.173c-10.164,10.168-23.247,16.343-37.364,17.747
		c1.723,5.719,2.62,11.727,2.62,17.871c0,16.468-6.413,31.945-18.058,43.591c-11.645,11.641-27.127,18.051-43.587,18.051
		c-6.156,0-12.172-0.897-17.902-2.628c-1.372,13.653-7.267,26.939-17.704,37.38c-9.228,9.216-20.854,15.138-33.466,17.212
		c10.004,22.62,5.77,50.074-12.737,68.588c-11.653,11.645-27.127,18.051-43.587,18.051c-0.004,0-0.004,0-0.004,0
		c-0.674,0-1.345-0.027-2.016-0.047l-24.515,24.515c-4.807,4.811-7.248,11.583-6.865,19.072c0.413,8.062,3.977,15.84,10.043,21.902
		l66.682,66.686c12.172,12.172,31.98,12.172,44.152,0l37.805-37.805l14.448-3.879c59.111,15.786,122.682-1.248,165.898-44.46
		l85.017-85.021c0.066-0.066,0.133-0.133,0.199-0.203l39.591-39.591C514.09,273.761,514.09,253.648,501.732,241.286z"/>
	<path fill="#F0E535" d="M453.517,376.689l-55.419,55.419c-19.119,19.115-41.805,34.136-66.604,44.23l20.737,20.737
		c12.172,12.172,31.98,12.172,44.152,0l66.686-66.682c11.969-11.965,14.834-29.318,6.261-37.891
		C463.412,386.583,457.93,381.102,453.517,376.689z"/>
</g>
</svg>
