<?xml version="1.0" encoding="utf-8"?>
<!-- Generator: Adobe Illustrator 17.0.0, SVG Export Plug-In . SVG Version: 6.00 Build 0)  -->
<!DOCTYPE svg PUBLIC "-//W3C//DTD SVG 1.1//EN" "http://www.w3.org/Graphics/SVG/1.1/DTD/svg11.dtd">
<svg version="1.1" id="Capa_1" xmlns="http://www.w3.org/2000/svg" xmlns:xlink="http://www.w3.org/1999/xlink" x="0px" y="0px"
	 width="841.89px" height="595.28px" viewBox="0 0 841.89 595.28" enable-background="new 0 0 841.89 595.28" xml:space="preserve">
<path fill="#E46EA6" d="M611.825,23.14H230.068c-7.668,0-13.882,6.216-13.882,13.882v521.236c0,7.666,6.214,13.882,13.882,13.882
	h381.757c7.668,0,13.882-6.216,13.882-13.882V37.022C625.707,29.356,619.491,23.14,611.825,23.14z M414.1,82.439h129.103
	c7.668,0,13.882,6.216,13.882,13.882s-6.214,13.882-13.882,13.882H414.1c-7.668,0-13.882-6.216-13.882-13.882
	S406.431,82.439,414.1,82.439z M414.1,153.931h129.103c7.668,0,13.882,6.216,13.882,13.882c0,7.666-6.214,13.882-13.882,13.882
	H414.1c-7.668,0-13.882-6.216-13.882-13.882C400.218,160.148,406.431,153.931,414.1,153.931z M308.157,132.947
	c-5.222-3.837-8.632-10.001-8.632-16.961v-12.494c0-11.608,9.445-21.054,21.056-21.054s21.054,9.445,21.054,21.054v12.494
	c0,6.96-3.409,13.127-8.632,16.961c16.375,3.818,28.625,18.502,28.625,36.024c0,7.666-6.214,13.882-13.882,13.882h-54.332
	c-7.668,0-13.882-6.216-13.882-13.882C279.533,151.449,291.782,136.765,308.157,132.947z M293.134,225.424H543.2
	c7.668,0,13.882,6.216,13.882,13.882c0,7.666-6.214,13.882-13.882,13.882H293.134c-7.668,0-13.882-6.216-13.882-13.882
	C279.252,231.64,285.469,225.424,293.134,225.424z M293.134,296.917H543.2c7.668,0,13.882,6.216,13.882,13.882
	s-6.214,13.882-13.882,13.882H293.134c-7.668,0-13.882-6.216-13.882-13.882S285.469,296.917,293.134,296.917z M293.134,368.409
	H543.2c7.668,0,13.882,6.216,13.882,13.882c0,7.666-6.214,13.882-13.882,13.882H293.134c-7.668,0-13.882-6.216-13.882-13.882
	C279.252,374.626,285.469,368.409,293.134,368.409z M363.239,495.827h-70.104c-7.668,0-13.882-6.216-13.882-13.882
	s6.214-13.882,13.882-13.882h70.104c7.668,0,13.882,6.216,13.882,13.882C377.121,489.614,370.907,495.827,363.239,495.827z
	 M548.756,495.827h-70.104c-7.668,0-13.882-6.216-13.882-13.882s6.214-13.882,13.882-13.882h70.104
	c7.668,0,13.882,6.216,13.882,13.882C562.638,489.614,556.424,495.827,548.756,495.827z"/>
</svg>
