<?xml version="1.0" encoding="utf-8"?>
<!-- Generator: Adobe Illustrator 17.0.0, SVG Export Plug-In . SVG Version: 6.00 Build 0)  -->
<!DOCTYPE svg PUBLIC "-//W3C//DTD SVG 1.1//EN" "http://www.w3.org/Graphics/SVG/1.1/DTD/svg11.dtd">
<svg version="1.1" id="Capa_1" xmlns="http://www.w3.org/2000/svg" xmlns:xlink="http://www.w3.org/1999/xlink" x="0px" y="0px"
	 width="8503.94px" height="8503.94px" viewBox="0 0 8503.94 8503.94" enable-background="new 0 0 8503.94 8503.94"
	 xml:space="preserve">
<path fill="#E46EA6" d="M5575.729,531.497H2941.5c-303.949,0-549.767,242.495-549.767,546.445v6328.127
	c0,305.61,245.817,566.376,549.767,566.376h2632.568c303.949,0,536.479-260.766,536.479-566.376V1077.941
	C6112.207,773.992,5879.678,531.497,5575.729,531.497z M4002.831,913.51h498.278c36.541,0,66.437,29.897,66.437,66.437
	c0,36.54-29.896,66.437-66.437,66.437h-498.278c-36.54,0-66.437-29.897-66.437-66.437
	C3936.394,943.406,3966.291,913.51,4002.831,913.51z M4260.275,7723.306c-159.449,0-289.001-129.552-289.001-289.001
	c0-159.449,129.552-289.001,289.001-289.001s289.001,129.552,289.001,289.001
	C4549.276,7593.754,4419.724,7723.306,4260.275,7723.306z M5813.241,6909.452H2690.7c-18.27,0-33.219-14.948-33.219-33.219V1411.787
	c0-18.27,14.948-33.219,33.219-33.219h3122.541c18.27,0,33.218,14.948,33.218,33.219v5464.446
	C5846.459,6894.504,5831.511,6909.452,5813.241,6909.452z"/>
</svg>
