<?xml version="1.0" encoding="utf-8"?>
<!-- Generator: Adobe Illustrator 17.0.0, SVG Export Plug-In . SVG Version: 6.00 Build 0)  -->
<!DOCTYPE svg PUBLIC "-//W3C//DTD SVG 1.1//EN" "http://www.w3.org/Graphics/SVG/1.1/DTD/svg11.dtd">
<svg version="1.1" id="Capa_1" xmlns="http://www.w3.org/2000/svg" xmlns:xlink="http://www.w3.org/1999/xlink" x="0px" y="0px"
	 width="8503.94px" height="8503.94px" viewBox="0 0 8503.94 8503.94" enable-background="new 0 0 8503.94 8503.94"
	 xml:space="preserve">
<path fill="#E46EA6" d="M6929.383,1062.993H1607.776c-290.662,0-544.784,209.277-544.784,496.617v5333.233
	c0,289.001,254.122,546.444,544.784,546.444h5319.945c292.323,0,511.565-259.104,511.565-546.444V1559.61
	C7440.948,1272.27,7220.045,1062.993,6929.383,1062.993z M3039.494,6377.956h-913.509V3537.772h913.509V6377.956z
	 M2614.297,3105.932h-6.644c-292.323,0-481.668-217.581-481.668-489.973c0-277.375,194.328-489.973,493.295-489.973
	s481.668,210.938,488.312,489.973C3107.592,2888.351,2918.247,3105.932,2614.297,3105.932z M6377.956,6377.956h-913.509V4824.99
	c0-372.047-132.874-626.169-463.398-626.169c-252.461,0-401.944,171.075-468.381,337.168
	c-24.914,59.793-31.558,141.179-31.558,224.225v1617.742H3587.6V3537.772h913.509v395.301
	c132.875-189.345,340.49-461.738,823.819-461.738c599.595,0,1053.027,395.301,1053.027,1247.355V6377.956z"/>
</svg>
