<?xml version="1.0" encoding="utf-8"?>
<!-- Generator: Adobe Illustrator 17.0.0, SVG Export Plug-In . SVG Version: 6.00 Build 0)  -->
<!DOCTYPE svg PUBLIC "-//W3C//DTD SVG 1.1//EN" "http://www.w3.org/Graphics/SVG/1.1/DTD/svg11.dtd">
<svg version="1.1" id="Capa_1" xmlns="http://www.w3.org/2000/svg" xmlns:xlink="http://www.w3.org/1999/xlink" x="0px" y="0px"
	 width="8503.94px" height="8503.94px" viewBox="0 0 8503.94 8503.94" enable-background="new 0 0 8503.94 8503.94"
	 xml:space="preserve">
<path fill="#E46EA6" d="M2963.092,4775.162c-151.144,0-280.696,69.759-385.335,212.599
	c-104.638,141.179-156.127,315.576-156.127,521.531c0,207.616,53.15,382.013,156.127,523.191
	c104.638,141.179,232.53,212.598,385.335,212.598c141.179,0,264.087-71.419,367.065-212.598
	c104.638-141.179,156.127-315.576,156.127-523.191c0-205.955-53.149-380.352-156.127-521.531
	C3225.518,4844.921,3104.27,4775.162,2963.092,4775.162z M5559.119,4775.162c-149.483,0-280.696,69.759-385.335,212.599
	c-104.638,141.179-156.127,315.576-156.127,521.531c0,207.616,53.15,382.013,156.127,523.191
	c104.638,141.179,234.19,212.598,385.335,212.598c141.179,0,264.087-71.419,368.726-212.598
	c104.638-141.179,156.127-315.576,156.127-523.191c0-205.955-53.15-380.352-156.127-521.531
	C5823.207,4844.921,5701.959,4775.162,5559.119,4775.162z"/>
<path fill="#E46EA6" d="M7404.407,2856.793c-1.661,0,44.845-237.512,4.982-651.083
	c-36.541-413.571-124.569-793.923-267.409-1142.717c0,0-73.081,13.287-212.599,48.167s-367.064,104.638-679.318,245.817
	c-307.271,141.179-631.152,328.863-968.32,556.41c-229.208-64.776-571.358-97.995-1029.774-97.995
	c-436.823,0-778.974,33.219-1029.774,97.995c-740.773-513.226-1360.298-797.245-1861.898-850.394
	c-142.84,348.794-230.869,730.807-265.748,1146.039c-39.862,413.57,6.644,652.744,6.644,652.744
	C697.589,3298.599,531.496,3928.09,531.496,4447.96c0,401.944,11.626,765.687,101.316,1087.906
	c93.012,320.559,210.938,582.985,350.455,783.957c142.84,200.972,315.576,378.691,524.853,529.835
	c207.616,154.466,398.622,265.748,571.359,335.507c174.397,73.081,372.047,126.23,597.933,164.432
	c220.903,39.862,388.657,59.793,506.583,66.437c0,0,465.059,24.914,1069.636,24.914c604.577,0,1067.976-24.914,1067.976-24.914
	c116.265-6.644,284.019-26.575,506.583-66.437c224.225-38.201,423.536-93.012,596.272-164.432
	c172.736-71.42,363.743-181.041,573.02-335.507c207.616-149.483,380.352-327.203,523.192-529.835
	c139.518-200.972,257.443-463.398,350.455-783.957c91.351-322.22,101.317-687.623,101.317-1089.567
	C7972.445,3943.038,7806.352,3305.243,7404.407,2856.793L7404.407,2856.793z M6318.162,6736.716
	c-463.398,217.582-1144.378,305.61-2047.922,305.61h-34.879c-903.543,0-1584.523-86.368-2039.617-305.61
	c-456.755-217.582-685.962-666.031-685.962-1340.367c0-403.605,142.84-730.808,423.536-981.607
	c122.908-107.96,272.392-182.702,458.416-227.547c184.363-43.184,355.438-46.506,514.887-41.523
	c156.127,6.644,375.369,36.54,652.744,58.132c279.035,21.592,486.651,49.828,694.267,49.828
	c194.329,0,451.772-33.219,865.342-66.437c415.231-33.219,722.503-49.828,921.814-16.609
	c204.293,33.219,382.013,102.978,533.157,244.156c293.984,262.426,441.807,589.629,441.807,981.607
	C7014.09,6070.686,6779.899,6519.136,6318.162,6736.716L6318.162,6736.716z"/>
</svg>
