<?xml version="1.0" encoding="utf-8"?>
<!-- Generator: Adobe Illustrator 17.0.0, SVG Export Plug-In . SVG Version: 6.00 Build 0)  -->
<!DOCTYPE svg PUBLIC "-//W3C//DTD SVG 1.1//EN" "http://www.w3.org/Graphics/SVG/1.1/DTD/svg11.dtd">
<svg version="1.1" id="Capa_1" xmlns="http://www.w3.org/2000/svg" xmlns:xlink="http://www.w3.org/1999/xlink" x="0px" y="0px"
	 width="8503.94px" height="8503.94px" viewBox="0 0 8503.94 8503.94" enable-background="new 0 0 8503.94 8503.94"
	 xml:space="preserve">
<path fill="#E46EA6" d="M5580.711,1594.489c352.117,0,685.962,139.518,938.423,390.318s390.318,586.307,390.318,938.423v2657.481
	c0,352.117-139.518,685.962-390.318,938.423c-250.8,252.461-586.306,390.318-938.423,390.318H2923.229
	c-352.116,0-685.962-139.518-938.423-390.318c-252.461-250.8-390.318-586.306-390.318-938.423V2923.23
	c0-352.116,139.518-685.962,390.318-938.423s586.307-390.318,938.423-390.318H5580.711 M5580.711,1062.993H2923.229
	c-1023.13,0-1860.237,837.107-1860.237,1860.237v2657.481c0,1023.13,837.107,1860.237,1860.237,1860.237h2657.481
	c1023.13,0,1860.237-837.106,1860.237-1860.237V2923.23C7440.948,1900.1,6603.841,1062.993,5580.711,1062.993z"/>
<path fill="#E46EA6" d="M5979.333,2923.23c-220.903,0-398.622-177.719-398.622-398.622c0-220.903,177.719-398.622,398.622-398.622
	c219.243,0,398.623,177.719,398.623,398.622C6377.956,2745.511,6198.576,2923.23,5979.333,2923.23z M4251.97,3188.978
	c586.307,0,1062.993,476.686,1062.993,1062.993S4838.277,5314.963,4251.97,5314.963s-1062.992-476.686-1062.992-1062.993
	S3665.663,3188.978,4251.97,3188.978 M4251.97,2657.482c-880.291,0-1594.489,714.198-1594.489,1594.489
	s714.198,1594.489,1594.489,1594.489s1594.489-714.198,1594.489-1594.489S5132.261,2657.482,4251.97,2657.482z"/>
</svg>
