<?xml version="1.0" encoding="utf-8"?>
<!-- Generator: Adobe Illustrator 17.0.0, SVG Export Plug-In . SVG Version: 6.00 Build 0)  -->
<!DOCTYPE svg PUBLIC "-//W3C//DTD SVG 1.1//EN" "http://www.w3.org/Graphics/SVG/1.1/DTD/svg11.dtd">
<svg version="1.1" id="Capa_1" xmlns="http://www.w3.org/2000/svg" xmlns:xlink="http://www.w3.org/1999/xlink" x="0px" y="0px"
	 width="8503.94px" height="8503.94px" viewBox="0 0 8503.94 8503.94" enable-background="new 0 0 8503.94 8503.94"
	 xml:space="preserve">
<circle fill="#F0E535" cx="4185.55" cy="1195.867" r="930.118"/>
<polygon fill="#F0E535" points="426.542,6643.704 2363.846,6643.704 1395.194,4921.656 "/>
<rect x="6311.535" y="4783.467" fill="#F0E535" width="1860.237" height="1860.237"/>
<g>
	<path fill="#F0E535" d="M4185.55,2391.734c659.454,0,1195.867-536.545,1195.867-1195.867S4845.004,0,4185.55,0
		S2989.683,536.546,2989.683,1195.867S3526.096,2391.734,4185.55,2391.734z M4185.55,265.749
		c512.761,0,930.119,417.225,930.119,930.118s-417.357,930.119-930.119,930.119s-930.118-417.225-930.118-930.119
		S3672.789,265.749,4185.55,265.749z"/>
	<path fill="#F0E535" d="M2705.731,6843.68c23.917-40.792,24.316-91.152,1.063-132.209L1510.928,4585.485
		c-46.905-83.711-184.562-83.711-231.467,0L83.594,6711.47c-23.253,41.058-22.854,91.417,1.063,132.209
		c23.917,40.792,67.5,65.772,114.67,65.772h2391.733C2638.364,6909.452,2681.947,6884.472,2705.731,6843.68z M426.542,6643.704
		l968.652-1722.048l968.652,1722.048H426.542z"/>
	<path fill="#F0E535" d="M8304.646,4517.719H6178.661c-73.479,0-132.874,59.528-132.874,132.874v2125.985
		c0,73.346,59.395,132.874,132.874,132.874h2125.985c73.479,0,132.874-59.528,132.874-132.874V4650.593
		C8437.521,4577.247,8378.125,4517.719,8304.646,4517.719z M8171.772,6643.704H6311.535V4783.467h1860.237V6643.704z"/>
	<path fill="#F0E535" d="M4185.55,7573.822c-616.934,0-1215.399-176.457-1730.685-510.104l-144.567,223.096
		c558.602,361.683,1207.028,552.756,1875.251,552.756c693.603,0,1362.624-204.759,1934.647-592.087l-148.952-220.039
		C5443.336,7384.875,4825.87,7573.822,4185.55,7573.822z"/>
	<path fill="#F0E535" d="M7372.136,4257.153l265.482-10.364c-49.828-1268.682-790.202-2404.755-1931.989-2965.085l-117.062,238.642
		C6642.524,2037.491,7326.028,3086.266,7372.136,4257.153z"/>
	<path fill="#F0E535" d="M1006.671,4640.096c-6.644-83.844-10.098-169.68-10.098-255.251
		c0-1226.295,684.302-2323.967,1785.828-2864.499l-116.929-238.642C1472.128,1867.413,730.824,3056.37,730.824,4384.845
		c0,92.613,3.588,185.625,10.896,276.378L1006.671,4640.096z"/>
	<path fill="#F0E535" d="M2231.371,969.051l187.884,187.884l398.622-398.622c51.954-51.954,51.954-135.93,0-187.884
		l-398.622-398.622l-187.884,187.884l171.806,171.806h-875.109v265.748h875.109L2231.371,969.051z"/>
	<path fill="#F0E535" d="M7906.024,3056.104c34.016,0,68.032-13.021,93.942-38.932l398.622-398.622l-187.884-187.884
		l-171.806,171.806v-875.109H7773.15v875.109l-171.806-171.806l-187.884,187.884l398.622,398.622
		C7837.992,3043.083,7872.008,3056.104,7906.024,3056.104z"/>
	<path fill="#F0E535" d="M1301.252,7214.132L902.63,7612.754l187.884,187.884l171.806-171.806v875.109h265.748v-875.109
		l171.806,171.806l187.884-187.884l-398.622-398.622C1437.315,7162.179,1353.206,7162.179,1301.252,7214.132z"/>
	<path fill="#F0E535" d="M5381.417,4251.971c0-425.595-229.075-822.49-597.8-1035.753l-133.14,230.005
		c286.875,165.96,465.192,474.626,465.192,805.748c0,433.436-298.435,797.377-700.114,900.222l154.666-309.198l-237.712-118.922
		l-265.748,531.497c-25.512,51.156-15.546,112.943,24.98,153.336l398.622,398.622l187.884-187.884l-207.549-207.549
		C4992.626,5283.738,5381.417,4812.965,5381.417,4251.971z"/>
	<path fill="#F0E535" d="M3587.882,5287.99l132.874-230.005c-287.008-165.959-465.325-474.759-465.325-806.014
		c0-433.302,298.302-797.377,700.113-900.089l-154.665,309.198l237.712,118.922l265.748-531.496
		c25.512-51.156,15.546-112.943-24.847-153.336l-398.623-398.622l-187.884,187.884l207.549,207.549
		c-521.929,128.223-910.852,598.996-910.852,1159.99C2989.683,4677.833,3218.891,5074.727,3587.882,5287.99z"/>
</g>
</svg>
