<?xml version="1.0" encoding="utf-8"?>
<!-- Generator: Adobe Illustrator 17.0.0, SVG Export Plug-In . SVG Version: 6.00 Build 0)  -->
<!DOCTYPE svg PUBLIC "-//W3C//DTD SVG 1.1//EN" "http://www.w3.org/Graphics/SVG/1.1/DTD/svg11.dtd">
<svg version="1.1" id="Capa_1" xmlns="http://www.w3.org/2000/svg" xmlns:xlink="http://www.w3.org/1999/xlink" x="0px" y="0px"
	 width="8503.94px" height="8503.94px" viewBox="0 0 8503.94 8503.94" enable-background="new 0 0 8503.94 8503.94"
	 xml:space="preserve">
<path fill="#EFE536" d="M7435.284,1594.489H1068.656c-296.259,0-537.16,240.569-537.16,536.612v4241.157
	c0,296.244,240.901,537.194,537.16,537.194h6366.628c296.259,0,537.16-240.95,537.16-537.21V2131.101
	C7972.444,1835.058,7731.543,1594.489,7435.284,1594.489z M4717.412,5846.459h-930.916V4251.971l-698.253,894.874l-697.954-894.874
	v1594.489h-930.849V2657.482h930.849l697.954,1129.097l698.253-1129.097h930.916V5846.459z M6106.892,5846.459L4950.306,4251.971
	h697.589V2657.482h930.833v1594.489h698.038L6106.593,5846.459H6106.892z"/>
</svg>
