<?xml version="1.0" encoding="utf-8"?>
<!-- Generator: Adobe Illustrator 17.0.0, SVG Export Plug-In . SVG Version: 6.00 Build 0)  -->
<!DOCTYPE svg PUBLIC "-//W3C//DTD SVG 1.1//EN" "http://www.w3.org/Graphics/SVG/1.1/DTD/svg11.dtd">
<svg version="1.1" id="Capa_1" xmlns="http://www.w3.org/2000/svg" xmlns:xlink="http://www.w3.org/1999/xlink" x="0px" y="0px"
	 width="8503.94px" height="8503.94px" viewBox="0 0 8503.94 8503.94" enable-background="new 0 0 8503.94 8503.94"
	 xml:space="preserve">
<path fill="#EFE536" d="M4251.97,531.497c-2054.565,0-3720.474,1709.093-3720.474,3815.147
	c0,1685.84,1066.314,3114.236,2544.538,3619.158c23.253,4.982,43.184,6.644,63.115,6.644c137.857,0,191.006-101.317,191.006-189.346
	c0-91.351-3.322-330.524-4.983-649.422c-139.518,31.557-264.087,44.845-375.369,44.845c-715.859,0-878.63-556.41-878.63-556.41
	c-169.414-440.146-413.571-558.071-413.571-558.071c-323.88-227.547-1.661-234.191,23.253-234.191h1.661
	c373.708,33.219,569.698,395.3,569.698,395.3c186.024,325.542,435.163,416.893,657.727,416.893
	c174.397,0,332.185-56.471,425.197-99.656c33.219-245.817,129.552-413.57,235.852-509.904
	c-825.48-96.333-1694.145-423.536-1694.145-1885.151c0-416.892,144.5-757.382,382.013-1023.13
	c-38.201-96.334-166.093-484.99,36.54-1009.843c0,0,26.575-8.305,83.046-8.305c134.535,0,438.484,51.489,940.084,400.283
	c297.305-84.707,614.542-126.23,931.779-127.891c315.576,1.661,634.474,43.184,931.78,127.891
	c501.6-348.794,805.549-400.283,940.084-400.283c56.471,0,83.046,8.305,83.046,8.305
	c202.633,524.853,74.742,913.509,36.541,1009.843c237.512,267.409,382.013,607.899,382.013,1023.13
	c0,1464.937-870.325,1787.156-1699.127,1881.83c132.874,117.926,252.461,350.455,252.461,705.893
	c0,509.905-4.982,921.814-4.982,1046.383c0,89.69,51.489,191.007,189.346,191.007c19.931,0,43.184-1.661,66.437-6.644
	c1479.884-504.921,2544.538-1934.979,2544.538-3619.158C7972.444,2240.589,6306.536,531.497,4251.97,531.497z"/>
</svg>
