<?xml version="1.0" encoding="utf-8"?>
<!-- Generator: Adobe Illustrator 17.0.0, SVG Export Plug-In . SVG Version: 6.00 Build 0)  -->
<!DOCTYPE svg PUBLIC "-//W3C//DTD SVG 1.1//EN" "http://www.w3.org/Graphics/SVG/1.1/DTD/svg11.dtd">
<svg version="1.1" id="Capa_1" xmlns="http://www.w3.org/2000/svg" xmlns:xlink="http://www.w3.org/1999/xlink" x="0px" y="0px"
	 width="2500px" height="1738px" viewBox="0 0 2500 1738" enable-background="new 0 0 2500 1738" xml:space="preserve">
<path fill="#EFE536" d="M1458.287,538.878l104.173-104.163c30.122-30.132,58.848-56.602,86.021-79.245
	c27.173-22.653,54.347-45.989,81.53-70.194c60.342-51.281,110.158-87.515,149.429-108.674c39.183-21.09,76.97-31.694,113.204-31.694
	c51.281,0,97.357,18.903,138.103,56.602c40.755,37.777,61.123,80.817,61.123,129.061c0,36.225-9.823,73.23-29.429,110.949
	c-19.665,37.787-55.108,89.858-106.418,156.215c-235.46,307.929-353.195,507.174-353.195,597.735
	c0,39.271,19.606,58.877,58.858,58.877c30.151,0,63.408-12.82,99.642-38.509c36.205-25.601,82.984-70.184,140.368-133.572
	c30.132-33.188,67.147-78.483,110.929-135.847c43.743-57.325,82.223-110.158,115.479-158.49
	c33.198-48.264,61.133-81.52,83.775-99.613c22.643-18.122,49.035-27.173,79.245-27.173c30.151,0,55.831,10.604,76.97,31.675
	c21.1,21.159,31.704,46.848,31.704,76.999c0,57.383-26.451,133.592-79.245,228.674c-52.843,95.092-121.562,192.449-206.041,292.072
	c-105.696,126.786-213.598,224.934-323.756,294.327c-110.236,69.432-210.571,104.173-301.123,104.173
	c-84.566,0-153.969-27.964-208.316-83.776c-54.347-55.831-81.5-127.509-81.5-215.092c0-45.296,3.75-88.306,11.317-129.061
	c7.509-40.765,18.815-82.994,33.95-126.796c15.076-43.733,36.234-90.552,63.408-140.378
	c27.173-49.816,61.836-104.866,104.143-165.276c2.978-6.015,10.555-18.112,22.653-36.225
	c-78.552,60.43-156.225,136.609-233.214,228.684c-76.97,92.104-154.731,210.562-233.204,355.46
	c-57.393,96.644-101.175,160.755-131.326,192.449c-30.21,31.704-67.909,47.541-113.195,47.541
	c-48.332,0-88.306-17.321-120.01-52.062c-31.704-34.682-47.541-77.702-47.541-129.071c0-33.168,3.74-65.653,11.307-97.357
	c7.509-31.684,23.375-74.705,47.57-129.042c15.046-42.249,34.653-88.306,58.858-138.132c24.127-49.787,45.286-88.296,63.398-115.45
	l86.031-149.439c6.015-6.015,15.076-21.09,27.173-45.286c-60.43,48.332-119.287,103.44-176.602,165.276
	c-57.506,62.043-112.638,126.245-165.276,192.469c-52.863,66.425-99.623,133.572-140.378,201.501
	c-40.765,67.919-74.724,133.572-101.888,196.98c-36.234,84.537-68.641,141.081-97.367,169.807
	c-28.638,28.657-65.663,43.011-110.949,43.011c-45.266,0-82.985-18.112-113.204-54.327c-30.122-36.225-45.266-83.004-45.266-140.378
	c0-114.688,55.88-312.449,167.531-593.205c63.408-159.974,132.108-307.929,206.031-443.766
	c73.953-135.847,147.183-252.03,219.623-348.694c42.249-54.327,78.483-92.827,108.693-115.45C732.213,11.326,765.469,0,801.703,0
	c39.203,0,73.162,13.592,101.888,40.755c28.657,27.173,43.011,60.43,43.011,99.623c0,30.21-6.776,61.914-20.368,95.102
	c-13.582,33.256-46.077,90.561-97.367,172.062c-13.79,23.275-27.376,46.671-40.755,70.184
	c-18.112,31.704-40.755,71.766-67.909,120.01l-49.826,99.613c90.562-108.674,169.807-200.719,237.735-276.215
	c67.919-75.427,127.499-135.857,178.867-181.123c51.31-45.286,97.367-78.483,138.122-99.632
	c40.736-21.071,77.673-31.684,110.929-31.684c42.249,0,78.483,14.353,108.693,43.011c30.132,28.726,45.266,64.179,45.266,106.399
	c0,27.173-6.083,57.393-18.112,90.581c-12.098,33.256-37.787,84.547-76.97,153.959l-95.092,172.082l-36.225,67.919l54.317-58.858
	C1372.256,626.461,1419.045,578.129,1458.287,538.878L1458.287,538.878z"/>
</svg>
