<?xml version="1.0" encoding="utf-8"?>
<!-- Generator: Adobe Illustrator 17.0.0, SVG Export Plug-In . SVG Version: 6.00 Build 0)  -->
<!DOCTYPE svg PUBLIC "-//W3C//DTD SVG 1.1//EN" "http://www.w3.org/Graphics/SVG/1.1/DTD/svg11.dtd">
<svg version="1.1" id="Capa_1" xmlns="http://www.w3.org/2000/svg" xmlns:xlink="http://www.w3.org/1999/xlink" x="0px" y="0px"
	 width="2500px" height="2246px" viewBox="0 0 2500 2246" enable-background="new 0 0 2500 2246" xml:space="preserve">
<g>
	<path fill="#EFE536" d="M1963.053,778.034L1963.053,778.034c-23.485-8.056-47.17-15.519-71.032-22.382
		c3.958-16.08,7.617-32.231,10.976-48.445c53.768-261.005,18.613-471.27-101.441-540.485
		c-115.103-66.384-303.356,2.832-493.485,168.284c-18.735,16.34-37.054,33.152-54.939,50.417
		c-11.978-11.481-24.167-22.739-36.561-33.768c-199.259-176.926-398.987-251.474-518.914-182.053
		c-114.995,66.569-149.056,264.247-100.65,511.6c4.816,24.495,10.254,48.864,16.308,73.083
		c-28.26,8.027-55.554,16.581-81.667,25.683c-233.604,81.441-382.796,209.093-382.796,341.489
		c0,136.752,160.149,273.915,403.479,357.075c19.73,6.712,39.625,12.931,59.666,18.652c-6.51,26.092-12.291,52.361-17.333,78.776
		c-46.15,243.056-10.107,436.046,104.585,502.206c118.462,68.308,317.282-1.904,510.887-171.135
		c15.302-13.378,30.663-27.567,46.043-42.439c19.373,18.691,39.262,36.839,59.646,54.422
		c187.531,161.37,372.739,226.533,487.333,160.198c118.354-68.513,156.81-275.838,106.87-528.083
		c-3.808-19.267-8.251-38.944-13.231-58.982c13.964-4.121,27.665-8.378,41.033-12.812
		c252.958-83.805,417.532-219.298,417.532-357.876C2355.361,988.582,2201.363,860.072,1963.053,778.034z M1369.953,406.116
		c162.903-141.771,315.153-197.746,384.525-157.737l0,0c73.884,42.615,102.623,214.454,56.199,439.806
		c-3.043,14.681-6.351,29.305-9.922,43.866c-91.539-21.123-190.949-36.844-295.026-46.609
		c-60.632-86.334-123.452-164.837-186.516-232.784C1335.738,436.726,1352.656,421.207,1369.953,406.116z M800.357,1234.558
		c19.954,38.543,40.812,76.612,62.556,114.175c22.188,38.317,45.286,76.1,69.274,113.315
		c-72.263-8.066-140.414-18.993-203.351-32.694C748.319,1366.447,772.322,1301.059,800.357,1234.558z M800.25,1012.868
		c-27.45-65.105-50.935-129.116-70.114-190.93c62.957-14.091,130.092-25.604,200.041-34.344
		c-23.415,36.521-45.969,73.587-67.644,111.167C840.887,936.307,820.12,974.353,800.25,1012.868z M850.355,1123.723
		c29.043-60.45,60.35-119.787,93.854-177.883v0.02c33.493-58.109,69.182-114.925,106.988-170.325
		c65.622-4.961,132.905-7.559,200.919-7.559c68.318,0,135.688,2.617,201.291,7.617c37.424,55.314,72.884,111.933,106.314,169.749
		c33.619,57.967,65.343,117.013,95.123,177.043c-29.473,60.642-61.097,120.215-94.811,178.606l-0.01,0
		c-33.424,58.063-68.728,115.025-105.855,170.794c-65.466,4.677-133.119,7.09-202.062,7.09c-68.66,0-135.454-2.139-199.777-6.308
		c-38.09-55.639-74.061-112.699-107.837-171.057C910.874,1243.459,879.472,1184.155,850.355,1123.723z M1641.68,1348.079
		c22.195-38.49,43.531-77.469,63.991-116.909h0c29.491,67.224,54.353,132.26,74.098,194.103
		c-63.981,14.599-133.051,26.356-205.831,35.086C1597.261,1423.385,1619.846,1385.951,1641.68,1348.079z M1704.773,1012.936
		c-20.392-38.692-41.554-76.973-63.474-114.819l0,0c-21.57-37.26-43.941-74.051-67.097-110.347
		c70.407,8.886,137.855,20.702,201.193,35.165C1756.382,883.879,1732.682,947.607,1704.773,1012.936z M1253.161,520.066
		c43.475,47.098,87.018,99.693,129.848,156.751c-86.881-4.105-173.907-4.125-260.79-0.059
		C1165.088,620.228,1209.002,567.711,1253.161,520.066z M744.881,251.181c73.825-42.732,237.051,18.203,409.094,170.96
		c10.996,9.765,22.04,19.989,33.104,30.565c-64.099,68.835-127.446,147.201-187.961,232.608
		c-103.775,9.619-203.116,25.067-294.441,45.76c-5.625-22.531-10.682-45.2-15.165-67.986v0.01
		C648.04,451.163,675.578,291.296,744.881,251.181z M637.288,1406.387c-18.294-5.236-36.456-10.921-54.47-17.05
		c-107.593-36.776-196.447-84.567-257.353-136.713c-54.724-46.873-82.36-93.404-82.36-131.167
		c0-80.338,119.79-182.824,319.576-252.479c25.076-8.705,50.402-16.673,75.944-23.896c27.616,89.811,63.835,183.713,107.544,278.67
		C701.895,1220.125,665.158,1315.521,637.288,1406.387z M1148.106,1836.047c-85.612,74.841-171.399,127.924-247.001,154.632l-0.01,0
		c-67.937,23.993-122.046,24.677-154.75,5.82c-69.606-40.135-98.531-195.109-59.07-402.962
		c4.693-24.564,10.066-48.993,16.113-73.259c90.377,19.99,190.422,34.374,297.351,43.045
		c61.042,85.905,124.975,164.866,189.406,234.014C1176.453,1810.583,1162.435,1823.49,1148.106,1836.047z M1255.768,1729.508
		c-44.676-48.211-89.234-101.529-132.758-158.88c42.245,1.66,85.319,2.5,129.097,2.5c44.979,0,89.439-1.006,133.197-2.959
		C1342.337,1628.565,1298.95,1681.961,1255.768,1729.508z M1828.166,1860.655c-13.144,70.837-39.568,118.061-72.243,136.977
		c-69.538,40.252-218.252-12.07-378.617-150.072c-18.388-15.82-36.913-32.714-55.486-50.584
		c62.175-68.005,124.312-147.064,184.954-234.854c106.675-9.462,207.452-24.94,298.845-46.062
		c4.492,18.163,8.496,35.965,11.943,53.377v0C1839.64,1680.975,1842.794,1781.82,1828.166,1860.655z M1908.192,1389.864h-0.01
		c-12.06,3.994-24.442,7.851-37.059,11.591c-27.929-88.404-65.623-182.414-111.734-279.529
		c44.012-94.82,80.241-187.619,107.388-275.457c22.567,6.542,44.48,13.427,65.593,20.702
		c204.191,70.28,328.736,174.211,328.736,254.286C2261.107,1206.756,2126.591,1317.494,1908.192,1389.864z"/>
	<path fill="#EFE536" d="M1252.106,1318.5c108.824,0,197.033-88.219,197.033-197.043c0-108.813-88.209-197.033-197.033-197.033
		c-108.814,0-197.033,88.219-197.033,197.033C1055.073,1230.281,1143.292,1318.5,1252.106,1318.5z"/>
</g>
</svg>
